{
    "asset" : {
        "generator" : "Khronos glTF Blender I/O v1.3.48",
        "version" : "2.0"
    },
    "scene" : 0,
    "scenes" : [
        {
            "name" : "Scene",
            "nodes" : [
                0,
                1,
                2
            ]
        }
    ],
    "nodes" : [
        {
            "name" : "Light",
            "rotation" : [
                0.16907575726509094,
                0.7558803558349609,
                -0.27217137813568115,
                0.570947527885437
            ],
            "translation" : [
                4.076245307922363,
                5.903861999511719,
                -1.0054539442062378
            ]
        },
        {
            "name" : "Camera",
            "rotation" : [
                0.483536034822464,
                0.33687159419059753,
                -0.20870360732078552,
                0.7804827094078064
            ],
            "translation" : [
                7.358891487121582,
                4.958309173583984,
                6.925790786743164
            ]
        },
        {
            "mesh" : 0,
            "name" : "Mask_\u041f\u043b\u043e\u0441\u043a\u043e\u0441\u0442\u044c.005",
            "rotation" : [
                0.7071068286895752,
                0,
                0,
                0.7071067094802856
            ],
            "scale" : [
                0.9029993414878845,
                0.9029993414878845,
                0.9029993414878845
            ],
            "translation" : [
                0,
                1.7373380661010742,
                0
            ]
        }
    ],
    "materials" : [
        {
            "doubleSided" : true,
            "emissiveFactor" : [
                0,
                0,
                0
            ],
            "name" : "StainlessSteel",
            "pbrMetallicRoughness" : {
                "baseColorFactor" : [
                    1,
                    1,
                    1,
                    1
                ],
                "metallicFactor" : 1,
                "roughnessFactor" : 0.05801105499267578
            }
        }
    ],
    "meshes" : [
        {
            "name" : "Mask_\u041f\u043b\u043e\u0441\u043a\u043e\u0441\u0442\u044c.005",
            "primitives" : [
                {
                    "attributes" : {
                        "POSITION" : 0,
                        "NORMAL" : 1
                    },
                    "indices" : 2,
                    "material" : 0
                }
            ]
        }
    ],
    "accessors" : [
        {
            "bufferView" : 0,
            "componentType" : 5126,
            "count" : 51650,
            "max" : [
                2.6565310955047607,
                2.34568190574646,
                4.224999904632568
            ],
            "min" : [
                -2.6565310955047607,
                -2.51247501373291,
                -2.674978017807007
            ],
            "type" : "VEC3"
        },
        {
            "bufferView" : 1,
            "componentType" : 5126,
            "count" : 51650,
            "type" : "VEC3"
        },
        {
            "bufferView" : 2,
            "componentType" : 5123,
            "count" : 309888,
            "type" : "SCALAR"
        }
    ],
    "bufferViews" : [
        {
            "buffer" : 0,
            "byteLength" : 619800,
            "byteOffset" : 0
        },
        {
            "buffer" : 0,
            "byteLength" : 619800,
            "byteOffset" : 619800
        },
        {
            "buffer" : 0,
            "byteLength" : 619776,
            "byteOffset" : 1239600
        }
    ],
    "buffers" : [
        {
            "byteLength" : 1859376,
            "uri" : "data:application/octet-stream;base64,"
        }
    ]
}
