{
    "asset" : {
        "generator" : "Khronos glTF Blender I/O v1.3.48",
        "version" : "2.0"
    },
    "scene" : 0,
    "scenes" : [
        {
            "name" : "Scene",
            "nodes" : [
                0,
                1,
                2,
                3
            ]
        }
    ],
    "nodes" : [
        {
            "name" : "Light",
            "rotation" : [
                0.16907575726509094,
                0.7558803558349609,
                -0.27217137813568115,
                0.570947527885437
            ],
            "translation" : [
                -0.3680911064147949,
                5.903861999511719,
                10.427716255187988
            ]
        },
        {
            "name" : "Camera",
            "rotation" : [
                0.483536034822464,
                0.33687159419059753,
                -0.20870360732078552,
                0.7804827094078064
            ],
            "translation" : [
                7.358891487121582,
                4.958309173583984,
                6.925790786743164
            ]
        },
        {
            "mesh" : 0,
            "name" : "Mask",
            "translation" : [
                0,
                0.39977794885635376,
                0
            ]
        },
        {
            "name" : "Camera.001",
            "rotation" : [
                0.6314453482627869,
                -0.20131827890872955,
                0.17456978559494019,
                0.7281985282897949
            ],
            "translation" : [
                -7.489250183105469,
                1.8011564016342163,
                18.99981117248535
            ]
        }
    ],
    "materials" : [
        {
            "doubleSided" : true,
            "emissiveFactor" : [
                0,
                0,
                0
            ],
            "name" : "StainlessSteel",
            "pbrMetallicRoughness" : {
                "baseColorFactor" : [
                    0.800000011920929,
                    0.800000011920929,
                    0.800000011920929,
                    1
                ],
                "metallicFactor" : 1
            }
        }
    ],
    "meshes" : [
        {
            "name" : "\u041f\u043b\u043e\u0441\u043a\u043e\u0441\u0442\u044c.008",
            "primitives" : [
                {
                    "attributes" : {
                        "POSITION" : 0,
                        "NORMAL" : 1
                    },
                    "indices" : 2,
                    "material" : 0
                }
            ]
        }
    ],
    "accessors" : [
        {
            "bufferView" : 0,
            "componentType" : 5126,
            "count" : 51650,
            "max" : [
                2.6565308570861816,
                2.674978017807007,
                2.345681667327881
            ],
            "min" : [
                -2.6565306186676025,
                -4.225000381469727,
                -2.512474536895752
            ],
            "type" : "VEC3"
        },
        {
            "bufferView" : 1,
            "componentType" : 5126,
            "count" : 51650,
            "type" : "VEC3"
        },
        {
            "bufferView" : 2,
            "componentType" : 5123,
            "count" : 309888,
            "type" : "SCALAR"
        }
    ],
    "bufferViews" : [
        {
            "buffer" : 0,
            "byteLength" : 619800,
            "byteOffset" : 0
        },
        {
            "buffer" : 0,
            "byteLength" : 619800,
            "byteOffset" : 619800
        },
        {
            "buffer" : 0,
            "byteLength" : 619776,
            "byteOffset" : 1239600
        }
    ],
    "buffers" : [
        {
            "byteLength" : 1859376,
            "uri" : "data:application/octet-stream;base64,"
        }
    ]
}
