{
    "asset" : {
        "generator" : "Khronos glTF Blender I/O v1.3.48",
        "version" : "2.0"
    },
    "extensionsUsed" : [
        "KHR_texture_transform"
    ],
    "extensionsRequired" : [
        "KHR_texture_transform"
    ],
    "scene" : 0,
    "scenes" : [
        {
            "name" : "Scene",
            "nodes" : [
                0,
                1,
                2,
                3,
                4,
                5
            ]
        }
    ],
    "nodes" : [
        {
            "mesh" : 0,
            "name" : "Mask",
            "translation" : [
                0,
                0.39977794885635376,
                0
            ]
        },
        {
            "name" : "Light",
            "rotation" : [
                0.16907575726509094,
                0.7558803558349609,
                -0.27217137813568115,
                0.570947527885437
            ],
            "translation" : [
                10.230974197387695,
                5.903861999511719,
                -5.502822399139404
            ]
        },
        {
            "name" : "Camera",
            "rotation" : [
                0.483536034822464,
                0.33687159419059753,
                -0.20870360732078552,
                0.7804827094078064
            ],
            "translation" : [
                7.358891487121582,
                4.958309173583984,
                6.925790786743164
            ]
        },
        {
            "name" : "Light.001",
            "rotation" : [
                0.16907575726509094,
                0.7558803558349609,
                -0.27217137813568115,
                0.570947527885437
            ],
            "translation" : [
                9.289621353149414,
                5.903861999511719,
                8.1771240234375
            ]
        },
        {
            "name" : "Light.002",
            "rotation" : [
                0.16907575726509094,
                0.7558803558349609,
                -0.27217137813568115,
                0.570947527885437
            ],
            "translation" : [
                -9.437747955322266,
                5.903861999511719,
                -5.502822399139404
            ]
        },
        {
            "name" : "Light.003",
            "rotation" : [
                0.16907575726509094,
                0.7558803558349609,
                -0.27217137813568115,
                0.570947527885437
            ],
            "translation" : [
                -9.437747955322266,
                5.903861999511719,
                9.016353607177734
            ]
        }
    ],
    "materials" : [
        {
            "doubleSided" : true,
            "emissiveFactor" : [
                0,
                0,
                0
            ],
            "name" : "StainlessSteel",
            "pbrMetallicRoughness" : {
                "baseColorTexture" : {
                    "extensions" : {
                        "KHR_texture_transform" : {
                            "offset" : [
                                0,
                                -30.199996948242188
                            ],
                            "scale" : [
                                0.19999980926513672,
                                31.199996948242188
                            ]
                        }
                    },
                    "index" : 0,
                    "texCoord" : 0
                },
                "metallicFactor" : 0,
                "roughnessFactor" : 0.20454546809196472
            }
        }
    ],
    "meshes" : [
        {
            "name" : "\u041f\u043b\u043e\u0441\u043a\u043e\u0441\u0442\u044c.008",
            "primitives" : [
                {
                    "attributes" : {
                        "POSITION" : 0,
                        "NORMAL" : 1
                    },
                    "indices" : 2,
                    "material" : 0
                }
            ]
        }
    ],
    "textures" : [
        {
            "source" : 0
        }
    ],
    "images" : [
        {
            "bufferView" : 3,
            "mimeType" : "image/jpeg",
            "name" : "METALTEXTURE_01"
        }
    ],
    "accessors" : [
        {
            "bufferView" : 0,
            "componentType" : 5126,
            "count" : 58697,
            "max" : [
                2.6565308570861816,
                2.674978017807007,
                2.345681667327881
            ],
            "min" : [
                -2.6565306186676025,
                -4.225000381469727,
                -2.512474536895752
            ],
            "type" : "VEC3"
        },
        {
            "bufferView" : 1,
            "componentType" : 5126,
            "count" : 58697,
            "type" : "VEC3"
        },
        {
            "bufferView" : 2,
            "componentType" : 5123,
            "count" : 309888,
            "type" : "SCALAR"
        }
    ],
    "bufferViews" : [
        {
            "buffer" : 0,
            "byteLength" : 704364,
            "byteOffset" : 0
        },
        {
            "buffer" : 0,
            "byteLength" : 704364,
            "byteOffset" : 704364
        },
        {
            "buffer" : 0,
            "byteLength" : 619776,
            "byteOffset" : 1408728
        },
        {
            "buffer" : 0,
            "byteLength" : 250677,
            "byteOffset" : 2028504
        }
    ],
    "buffers" : [
        {
            "byteLength" : 2279184,
            "uri" : "data:application/octet-stream;base64,"
        }
    ]
}
