{
    "asset" : {
        "generator" : "Khronos glTF Blender I/O v1.3.48",
        "version" : "2.0"
    },
    "extensionsUsed" : [
        "KHR_texture_transform"
    ],
    "extensionsRequired" : [
        "KHR_texture_transform"
    ],
    "scene" : 0,
    "scenes" : [
        {
            "name" : "Scene",
            "nodes" : [
                0,
                1,
                9,
                10,
                11,
                12
            ]
        }
    ],
    "nodes" : [
        {
            "name" : "Light",
            "rotation" : [
                0.16907575726509094,
                0.7558803558349609,
                -0.27217137813568115,
                0.570947527885437
            ],
            "translation" : [
                10.230974197387695,
                5.903861999511719,
                -5.502822399139404
            ]
        },
        {
            "name" : "Camera",
            "rotation" : [
                0.483536034822464,
                0.33687159419059753,
                -0.20870360732078552,
                0.7804827094078064
            ],
            "translation" : [
                7.358891487121582,
                4.958309173583984,
                6.925790786743164
            ]
        },
        {
            "mesh" : 0,
            "name" : "Pattern2D_12956",
            "translation" : [
                -0.08823083341121674,
                7.378427982330322,
                -130.2612762451172
            ]
        },
        {
            "mesh" : 1,
            "name" : "Pattern2D_12957",
            "translation" : [
                0.31970301270484924,
                -3.8298473358154297,
                -128.23667907714844
            ]
        },
        {
            "mesh" : 2,
            "name" : "Pattern2D_19106",
            "translation" : [
                -16.423948287963867,
                -3.3731870651245117,
                -145.7915802001953
            ]
        },
        {
            "mesh" : 3,
            "name" : "Pattern2D_19107",
            "translation" : [
                16.357763290405273,
                -3.624323606491089,
                -145.8914031982422
            ]
        },
        {
            "mesh" : 4,
            "name" : "Pattern2D_27801",
            "translation" : [
                0.008066128939390182,
                0.17958979308605194,
                -155.26710510253906
            ]
        },
        {
            "mesh" : 5,
            "name" : "Pattern2D_27802",
            "translation" : [
                -0.13247445225715637,
                -6.4504289627075195,
                -155.8177032470703
            ]
        },
        {
            "children" : [
                2,
                3,
                4,
                5,
                6,
                7
            ],
            "name" : "Female T shirt",
            "rotation" : [
                0,
                0,
                -0.7071067094802856,
                0.7071068286895752
            ],
            "scale" : [
                1.0709491968154907,
                1.0709491968154907,
                1.0709491968154907
            ],
            "translation" : [
                0.00023555755615234375,
                -1.6189416646957397,
                135.760498046875
            ]
        },
        {
            "children" : [
                8
            ],
            "name" : "Default",
            "rotation" : [
                0.7071068286895752,
                0,
                0,
                0.7071067094802856
            ],
            "scale" : [
                0.10878569632768631,
                0.10878569632768631,
                0.10878569632768631
            ]
        },
        {
            "name" : "Light.001",
            "rotation" : [
                0.16907575726509094,
                0.7558803558349609,
                -0.27217137813568115,
                0.570947527885437
            ],
            "translation" : [
                9.289621353149414,
                5.903861999511719,
                8.1771240234375
            ]
        },
        {
            "name" : "Light.002",
            "rotation" : [
                0.16907575726509094,
                0.7558803558349609,
                -0.27217137813568115,
                0.570947527885437
            ],
            "translation" : [
                -9.437747955322266,
                5.903861999511719,
                -5.502822399139404
            ]
        },
        {
            "name" : "Light.003",
            "rotation" : [
                0.16907575726509094,
                0.7558803558349609,
                -0.27217137813568115,
                0.570947527885437
            ],
            "translation" : [
                -9.437747955322266,
                5.903861999511719,
                9.016353607177734
            ]
        }
    ],
    "materials" : [
        {
            "doubleSided" : true,
            "emissiveFactor" : [
                0,
                0,
                0
            ],
            "name" : "Material4129",
            "normalTexture" : {
                "extensions" : {
                    "KHR_texture_transform" : {
                        "offset" : [
                            0,
                            21
                        ],
                        "scale" : [
                            -20,
                            -20
                        ]
                    }
                },
                "index" : 0,
                "scale" : 2,
                "texCoord" : 0
            },
            "pbrMetallicRoughness" : {
                "baseColorTexture" : {
                    "extensions" : {
                        "KHR_texture_transform" : {
                            "offset" : [
                                0,
                                5
                            ],
                            "scale" : [
                                -4,
                                -4
                            ]
                        }
                    },
                    "index" : 1,
                    "texCoord" : 0
                },
                "metallicFactor" : 0,
                "roughnessFactor" : 0.5527864098548889
            }
        },
        {
            "doubleSided" : true,
            "emissiveFactor" : [
                0,
                0,
                0
            ],
            "name" : "Material4129.001",
            "normalTexture" : {
                "extensions" : {
                    "KHR_texture_transform" : {
                        "offset" : [
                            0,
                            21
                        ],
                        "scale" : [
                            -20,
                            -20
                        ]
                    }
                },
                "index" : 2,
                "scale" : 2,
                "texCoord" : 0
            },
            "pbrMetallicRoughness" : {
                "baseColorTexture" : {
                    "extensions" : {
                        "KHR_texture_transform" : {
                            "offset" : [
                                0,
                                5
                            ],
                            "scale" : [
                                -4,
                                -4
                            ]
                        }
                    },
                    "index" : 3,
                    "texCoord" : 0
                },
                "metallicFactor" : 0,
                "roughnessFactor" : 0.5527864098548889
            }
        },
        {
            "doubleSided" : true,
            "emissiveFactor" : [
                0,
                0,
                0
            ],
            "name" : "Material4129.002",
            "normalTexture" : {
                "extensions" : {
                    "KHR_texture_transform" : {
                        "offset" : [
                            0,
                            21
                        ],
                        "scale" : [
                            -20,
                            -20
                        ]
                    }
                },
                "index" : 4,
                "scale" : 2,
                "texCoord" : 0
            },
            "pbrMetallicRoughness" : {
                "baseColorFactor" : [
                    0.760524570941925,
                    0.760524570941925,
                    0.760524570941925,
                    1
                ],
                "metallicFactor" : 0,
                "roughnessFactor" : 0.5527864098548889
            }
        },
        {
            "doubleSided" : true,
            "emissiveFactor" : [
                0,
                0,
                0
            ],
            "name" : "Material4129.003",
            "normalTexture" : {
                "extensions" : {
                    "KHR_texture_transform" : {
                        "offset" : [
                            0,
                            21
                        ],
                        "scale" : [
                            -20,
                            -20
                        ]
                    }
                },
                "index" : 5,
                "scale" : 2,
                "texCoord" : 0
            },
            "pbrMetallicRoughness" : {
                "baseColorFactor" : [
                    1,
                    1,
                    1,
                    1
                ],
                "metallicFactor" : 0,
                "roughnessFactor" : 0.5527864098548889
            }
        },
        {
            "doubleSided" : true,
            "emissiveFactor" : [
                0,
                0,
                0
            ],
            "name" : "Material4129.004",
            "normalTexture" : {
                "extensions" : {
                    "KHR_texture_transform" : {
                        "offset" : [
                            0,
                            21
                        ],
                        "scale" : [
                            -20,
                            -20
                        ]
                    }
                },
                "index" : 6,
                "scale" : 2,
                "texCoord" : 0
            },
            "pbrMetallicRoughness" : {
                "baseColorFactor" : [
                    0.760524570941925,
                    0.760524570941925,
                    0.760524570941925,
                    1
                ],
                "metallicFactor" : 0,
                "roughnessFactor" : 0.5527864098548889
            }
        },
        {
            "doubleSided" : true,
            "emissiveFactor" : [
                0,
                0,
                0
            ],
            "name" : "Material4129.005",
            "normalTexture" : {
                "extensions" : {
                    "KHR_texture_transform" : {
                        "offset" : [
                            0,
                            21
                        ],
                        "scale" : [
                            -20,
                            -20
                        ]
                    }
                },
                "index" : 7,
                "scale" : 2,
                "texCoord" : 0
            },
            "pbrMetallicRoughness" : {
                "baseColorFactor" : [
                    1,
                    1,
                    1,
                    1
                ],
                "metallicFactor" : 0,
                "roughnessFactor" : 0.5527864098548889
            }
        }
    ],
    "meshes" : [
        {
            "name" : "mesh",
            "primitives" : [
                {
                    "attributes" : {
                        "POSITION" : 0,
                        "NORMAL" : 1,
                        "TEXCOORD_0" : 2
                    },
                    "indices" : 3,
                    "material" : 0
                }
            ]
        },
        {
            "name" : "mesh.001",
            "primitives" : [
                {
                    "attributes" : {
                        "POSITION" : 4,
                        "NORMAL" : 5,
                        "TEXCOORD_0" : 6
                    },
                    "indices" : 7,
                    "material" : 1
                }
            ]
        },
        {
            "name" : "mesh.002",
            "primitives" : [
                {
                    "attributes" : {
                        "POSITION" : 8,
                        "NORMAL" : 9,
                        "TEXCOORD_0" : 10
                    },
                    "indices" : 11,
                    "material" : 2
                }
            ]
        },
        {
            "name" : "mesh.003",
            "primitives" : [
                {
                    "attributes" : {
                        "POSITION" : 12,
                        "NORMAL" : 13,
                        "TEXCOORD_0" : 14
                    },
                    "indices" : 15,
                    "material" : 3
                }
            ]
        },
        {
            "name" : "mesh.004",
            "primitives" : [
                {
                    "attributes" : {
                        "POSITION" : 16,
                        "NORMAL" : 17,
                        "TEXCOORD_0" : 18
                    },
                    "indices" : 19,
                    "material" : 4
                }
            ]
        },
        {
            "name" : "mesh.005",
            "primitives" : [
                {
                    "attributes" : {
                        "POSITION" : 20,
                        "NORMAL" : 21,
                        "TEXCOORD_0" : 22
                    },
                    "indices" : 23,
                    "material" : 5
                }
            ]
        }
    ],
    "textures" : [
        {
            "source" : 0
        },
        {
            "source" : 1
        },
        {
            "source" : 0
        },
        {
            "source" : 2
        },
        {
            "source" : 0
        },
        {
            "source" : 0
        },
        {
            "source" : 0
        },
        {
            "source" : 0
        }
    ],
    "images" : [
        {
            "bufferView" : 4,
            "mimeType" : "image/jpeg",
            "name" : "FABRIC_NORMALMAP_01"
        },
        {
            "bufferView" : 5,
            "mimeType" : "image/jpeg",
            "name" : "JP_PATTERN01"
        },
        {
            "bufferView" : 10,
            "mimeType" : "image/jpeg",
            "name" : "JP_PATTERN02"
        }
    ],
    "accessors" : [
        {
            "bufferView" : 0,
            "componentType" : 5126,
            "count" : 12165,
            "max" : [
                16.940698623657227,
                9.361032485961914,
                26.743927001953125
            ],
            "min" : [
                -16.579605102539062,
                -13.345983505249023,
                -25.928131103515625
            ],
            "type" : "VEC3"
        },
        {
            "bufferView" : 1,
            "componentType" : 5126,
            "count" : 12165,
            "type" : "VEC3"
        },
        {
            "bufferView" : 2,
            "componentType" : 5126,
            "count" : 12165,
            "type" : "VEC2"
        },
        {
            "bufferView" : 3,
            "componentType" : 5123,
            "count" : 69462,
            "type" : "SCALAR"
        },
        {
            "bufferView" : 6,
            "componentType" : 5126,
            "count" : 12362,
            "max" : [
                16.532529830932617,
                10.110406875610352,
                24.71953582763672
            ],
            "min" : [
                -16.954343795776367,
                -6.852502822875977,
                -27.6826171875
            ],
            "type" : "VEC3"
        },
        {
            "bufferView" : 7,
            "componentType" : 5126,
            "count" : 12362,
            "type" : "VEC3"
        },
        {
            "bufferView" : 8,
            "componentType" : 5126,
            "count" : 12362,
            "type" : "VEC2"
        },
        {
            "bufferView" : 9,
            "componentType" : 5123,
            "count" : 70752,
            "type" : "SCALAR"
        },
        {
            "bufferView" : 11,
            "componentType" : 5126,
            "count" : 2807,
            "max" : [
                3.40956974029541,
                5.958059310913086,
                6.1141510009765625
            ],
            "min" : [
                -7.087604522705078,
                -6.446657180786133,
                -8.62420654296875
            ],
            "type" : "VEC3"
        },
        {
            "bufferView" : 12,
            "componentType" : 5126,
            "count" : 2807,
            "type" : "VEC3"
        },
        {
            "bufferView" : 13,
            "componentType" : 5126,
            "count" : 2807,
            "type" : "VEC2"
        },
        {
            "bufferView" : 14,
            "componentType" : 5123,
            "count" : 15276,
            "type" : "SCALAR"
        },
        {
            "bufferView" : 15,
            "componentType" : 5126,
            "count" : 2801,
            "max" : [
                7.184883117675781,
                6.003486633300781,
                5.8201446533203125
            ],
            "min" : [
                -3.4101057052612305,
                -6.315643310546875,
                -8.572967529296875
            ],
            "type" : "VEC3"
        },
        {
            "bufferView" : 16,
            "componentType" : 5126,
            "count" : 2801,
            "type" : "VEC3"
        },
        {
            "bufferView" : 17,
            "componentType" : 5126,
            "count" : 2801,
            "type" : "VEC2"
        },
        {
            "bufferView" : 18,
            "componentType" : 5123,
            "count" : 15240,
            "type" : "SCALAR"
        },
        {
            "bufferView" : 19,
            "componentType" : 5126,
            "count" : 1302,
            "max" : [
                8.9298677444458,
                4.393838405609131,
                2.322357177734375
            ],
            "min" : [
                -9.088299751281738,
                -5.145637512207031,
                -1.652801513671875
            ],
            "type" : "VEC3"
        },
        {
            "bufferView" : 20,
            "componentType" : 5126,
            "count" : 1302,
            "type" : "VEC3"
        },
        {
            "bufferView" : 21,
            "componentType" : 5126,
            "count" : 1302,
            "type" : "VEC2"
        },
        {
            "bufferView" : 22,
            "componentType" : 5123,
            "count" : 6696,
            "type" : "SCALAR"
        },
        {
            "bufferView" : 23,
            "componentType" : 5126,
            "count" : 1030,
            "max" : [
                9.012941360473633,
                2.391119956970215,
                1.171173095703125
            ],
            "min" : [
                -8.929996490478516,
                -1.858311653137207,
                -1.101806640625
            ],
            "type" : "VEC3"
        },
        {
            "bufferView" : 24,
            "componentType" : 5126,
            "count" : 1030,
            "type" : "VEC3"
        },
        {
            "bufferView" : 25,
            "componentType" : 5126,
            "count" : 1030,
            "type" : "VEC2"
        },
        {
            "bufferView" : 26,
            "componentType" : 5123,
            "count" : 5208,
            "type" : "SCALAR"
        }
    ],
    "bufferViews" : [
        {
            "buffer" : 0,
            "byteLength" : 145980,
            "byteOffset" : 0
        },
        {
            "buffer" : 0,
            "byteLength" : 145980,
            "byteOffset" : 145980
        },
        {
            "buffer" : 0,
            "byteLength" : 97320,
            "byteOffset" : 291960
        },
        {
            "buffer" : 0,
            "byteLength" : 138924,
            "byteOffset" : 389280
        },
        {
            "buffer" : 0,
            "byteLength" : 168189,
            "byteOffset" : 528204
        },
        {
            "buffer" : 0,
            "byteLength" : 510765,
            "byteOffset" : 696396
        },
        {
            "buffer" : 0,
            "byteLength" : 148344,
            "byteOffset" : 1207164
        },
        {
            "buffer" : 0,
            "byteLength" : 148344,
            "byteOffset" : 1355508
        },
        {
            "buffer" : 0,
            "byteLength" : 98896,
            "byteOffset" : 1503852
        },
        {
            "buffer" : 0,
            "byteLength" : 141504,
            "byteOffset" : 1602748
        },
        {
            "buffer" : 0,
            "byteLength" : 464033,
            "byteOffset" : 1744252
        },
        {
            "buffer" : 0,
            "byteLength" : 33684,
            "byteOffset" : 2208288
        },
        {
            "buffer" : 0,
            "byteLength" : 33684,
            "byteOffset" : 2241972
        },
        {
            "buffer" : 0,
            "byteLength" : 22456,
            "byteOffset" : 2275656
        },
        {
            "buffer" : 0,
            "byteLength" : 30552,
            "byteOffset" : 2298112
        },
        {
            "buffer" : 0,
            "byteLength" : 33612,
            "byteOffset" : 2328664
        },
        {
            "buffer" : 0,
            "byteLength" : 33612,
            "byteOffset" : 2362276
        },
        {
            "buffer" : 0,
            "byteLength" : 22408,
            "byteOffset" : 2395888
        },
        {
            "buffer" : 0,
            "byteLength" : 30480,
            "byteOffset" : 2418296
        },
        {
            "buffer" : 0,
            "byteLength" : 15624,
            "byteOffset" : 2448776
        },
        {
            "buffer" : 0,
            "byteLength" : 15624,
            "byteOffset" : 2464400
        },
        {
            "buffer" : 0,
            "byteLength" : 10416,
            "byteOffset" : 2480024
        },
        {
            "buffer" : 0,
            "byteLength" : 13392,
            "byteOffset" : 2490440
        },
        {
            "buffer" : 0,
            "byteLength" : 12360,
            "byteOffset" : 2503832
        },
        {
            "buffer" : 0,
            "byteLength" : 12360,
            "byteOffset" : 2516192
        },
        {
            "buffer" : 0,
            "byteLength" : 8240,
            "byteOffset" : 2528552
        },
        {
            "buffer" : 0,
            "byteLength" : 10416,
            "byteOffset" : 2536792
        }
    ],
    "buffers" : [
        {
            "byteLength" : 2547208,
            "uri" : "data:application/octet-stream;base64,"
        }
    ]
}
